<mxfile host="Electron" modified="2023-08-09T14:22:13.910Z" agent="Mozilla/5.0 (Windows NT 10.0; Win64; x64) AppleWebKit/537.36 (KHTML, like Gecko) draw.io/21.6.5 Chrome/114.0.5735.243 Electron/25.3.1 Safari/537.36" etag="VdH9u9LictIUDqZ8gwd-" version="21.6.5" type="device">
  <diagram name="Page-1" id="_oI-ZQsrsv2MQGR5WxqM">
    <mxGraphModel dx="880" dy="545" grid="1" gridSize="10" guides="1" tooltips="1" connect="1" arrows="1" fold="1" page="1" pageScale="1" pageWidth="1169" pageHeight="827" math="0" shadow="0">
      <root>
        <mxCell id="0" />
        <mxCell id="1" parent="0" />
        <mxCell id="XRmQSs7Kc_bZLqYQTnLP-1" style="edgeStyle=none;shape=connector;rounded=0;orthogonalLoop=1;jettySize=auto;html=1;labelBackgroundColor=none;strokeColor=default;fontFamily=Helvetica;fontSize=11;fontColor=default;startArrow=none;startFill=0;endArrow=blockThin;endFill=1;endSize=12;" edge="1" parent="1" source="XRmQSs7Kc_bZLqYQTnLP-2" target="XRmQSs7Kc_bZLqYQTnLP-3">
          <mxGeometry relative="1" as="geometry" />
        </mxCell>
        <mxCell id="XRmQSs7Kc_bZLqYQTnLP-5" value="{required}" style="edgeLabel;html=1;align=center;verticalAlign=middle;resizable=0;points=[];fontSize=11;fontFamily=Helvetica;fontColor=default;" vertex="1" connectable="0" parent="XRmQSs7Kc_bZLqYQTnLP-1">
          <mxGeometry x="-0.1636" relative="1" as="geometry">
            <mxPoint x="20" y="-10" as="offset" />
          </mxGeometry>
        </mxCell>
        <mxCell id="XRmQSs7Kc_bZLqYQTnLP-2" value="«stereotype»&lt;br&gt;&lt;b&gt;Bean&lt;/b&gt;" style="swimlane;fontStyle=0;align=center;verticalAlign=top;childLayout=stackLayout;horizontal=1;startSize=48;horizontalStack=0;resizeParent=1;resizeParentMax=0;resizeLast=0;collapsible=0;marginBottom=0;html=1;whiteSpace=wrap;fontFamily=Helvetica;fontSize=11;fontColor=default;" vertex="1" parent="1">
          <mxGeometry x="200" width="90" height="40" as="geometry" />
        </mxCell>
        <mxCell id="XRmQSs7Kc_bZLqYQTnLP-3" value="&lt;b&gt;Componnet&lt;/b&gt;" style="swimlane;fontStyle=0;align=center;verticalAlign=middle;childLayout=stackLayout;horizontal=1;startSize=48;horizontalStack=0;resizeParent=1;resizeParentMax=0;resizeLast=0;collapsible=0;marginBottom=0;html=1;whiteSpace=wrap;fontFamily=Helvetica;fontSize=11;fontColor=default;" vertex="1" parent="1">
          <mxGeometry width="90" height="40" as="geometry" />
        </mxCell>
        <mxCell id="XRmQSs7Kc_bZLqYQTnLP-4" value="&lt;b&gt;Figure 12.20 Example of a Required Extension&lt;/b&gt;" style="text;html=1;align=left;verticalAlign=middle;resizable=0;points=[];autosize=1;strokeColor=none;fillColor=none;fontSize=11;fontFamily=Helvetica;fontColor=default;" vertex="1" parent="1">
          <mxGeometry y="40" width="260" height="30" as="geometry" />
        </mxCell>
      </root>
    </mxGraphModel>
  </diagram>
</mxfile>
